<?xml version="1.0" encoding="UTF-8" standalone="no"?>
<svg
   xmlns:dc="http://purl.org/dc/elements/1.1/"
   xmlns:cc="http://creativecommons.org/ns#"
   xmlns:rdf="http://www.w3.org/1999/02/22-rdf-syntax-ns#"
   xmlns:svg="http://www.w3.org/2000/svg"
   xmlns="http://www.w3.org/2000/svg"
   xmlns:sodipodi="http://sodipodi.sourceforge.net/DTD/sodipodi-0.dtd"
   xmlns:inkscape="http://www.inkscape.org/namespaces/inkscape"
   width="1088"
   height="687.962"
   viewBox="0 0 1088 687.962"
   version="1.1"
   id="svg160"
   sodipodi:docname="openhardware.svg"
   inkscape:version="1.0.2 (1.0.2+r75+1)">
  <metadata
     id="metadata166">
    <rdf:RDF>
      <cc:Work
         rdf:about="">
        <dc:format>image/svg+xml</dc:format>
        <dc:type
           rdf:resource="http://purl.org/dc/dcmitype/StillImage" />
        <dc:title />
      </cc:Work>
    </rdf:RDF>
  </metadata>
  <defs
     id="defs164" />
  <sodipodi:namedview
     pagecolor="#ffffff"
     bordercolor="#666666"
     borderopacity="1"
     objecttolerance="10"
     gridtolerance="10"
     guidetolerance="10"
     inkscape:pageopacity="0"
     inkscape:pageshadow="2"
     inkscape:window-width="1366"
     inkscape:window-height="704"
     id="namedview162"
     showgrid="false"
     inkscape:zoom="0.42444206"
     inkscape:cx="403.62154"
     inkscape:cy="114.42217"
     inkscape:window-x="0"
     inkscape:window-y="27"
     inkscape:window-maximized="1"
     inkscape:current-layer="svg160"
     inkscape:document-rotation="0" />
  <path
     fill="#0099b0"
     d="m 837.86485,332.21125 -72.95478,-13.56669 c -1.77517,-0.33284 -3.71896,-2.00149 -4.31809,-3.71453 l -22.36262,-52.17204 c -0.83433,-1.61097 -0.67455,-4.14057 0.35504,-5.64058 l 42.50629,-61.95321 c 1.01627,-1.49113 0.81656,-3.75891 -0.46599,-5.04146 l -53.0907,-53.0907 c -1.28254,-1.28255 -3.54588,-1.49113 -5.03702,-0.46598 l -63.04049,43.26073 c -1.49114,1.02516 -4.04737,1.20711 -5.6672,0.40829 l -50.57441,-20.70284 c -1.71747,-0.56805 -3.39056,-2.48967 -3.72784,-4.26927 L 585.44106,79.80521 c -0.32841,-1.779601 -2.08139,-3.235235 -3.89206,-3.235235 h -75.0894 c -1.80623,0 -3.5592,1.455634 -3.88761,3.235235 l -14.04154,75.45776 c -0.33728,1.7796 -2.00594,3.70122 -3.72785,4.26927 l -50.57883,20.70284 c -1.62427,0.79882 -4.18051,0.61687 -5.66721,-0.40829 l -63.03605,-43.26073 c -1.49558,-1.02515 -3.76335,-0.81657 -5.04147,0.46598 l -53.09513,53.0907 c -1.27812,1.28255 -1.49115,3.55033 -0.46598,5.04146 l 42.51072,61.95321 c 1.02071,1.50001 1.18049,4.02961 0.35059,5.64058 l -22.36705,52.17204 c -0.59468,1.71304 -2.53405,3.38169 -4.31809,3.71453 l -72.95034,13.56669 c -1.78403,0.33728 -3.23523,2.08582 -3.23523,3.89648 l 0.005,75.08498 c 0,1.81067 1.45562,3.57251 3.23523,3.89648 l 71.16186,13.24272 c 1.77959,0.32396 3.68345,2.01481 4.22488,3.74116 l 22.21618,55.49604 c 0.79438,1.62871 0.60799,4.17608 -0.4216,5.66721 l -40.42047,58.90436 c -1.02072,1.49113 -0.81214,3.76334 0.46598,5.0459 l 53.09957,53.0907 c 1.27812,1.27368 3.54588,1.48226 5.04146,0.46598 l 57.86145,-39.71484 c 1.49114,-1.02072 3.98968,-1.10061 5.54739,-0.19084 l 25.51797,13.62439 c 1.6154,0.82545 3.50151,0.12869 4.19382,-1.54439 l 52.61544,-127.13277 c 0.69674,-1.67309 0,-3.80773 -1.5444,-4.753 l -6.38615,-3.90979 c -1.18049,-0.71895 -2.78257,-1.95712 -4.0385,-3.09323 -23.03718,-14.7516 -38.32134,-40.55804 -38.32134,-69.94588 0,-45.86133 37.1808,-83.0377 83.0377,-83.0377 45.85691,0 83.03328,37.17637 83.03328,83.0377 0,29.38784 -15.27972,55.19428 -38.32135,69.94588 -1.24705,1.13611 -2.85358,2.37428 -4.02962,3.09323 l -6.38615,3.90979 c -1.53551,0.94527 -2.23671,3.07991 -1.5444,4.753 l 52.61142,127.1372 c 0.69231,1.6731 2.57398,2.36541 4.19381,1.54439 l 25.51799,-13.62437 c 1.56213,-0.90977 4.05624,-0.83433 5.54737,0.19082 l 57.86589,39.71484 c 1.49114,1.01628 3.76336,0.80771 5.03703,-0.46598 l 53.09957,-53.0907 c 1.28255,-1.28255 1.49114,-3.55475 0.46599,-5.0459 l -40.42492,-58.90435 c -1.02071,-1.49114 -1.21154,-4.03849 -0.41715,-5.66721 l 22.21616,-55.49605 c 0.54587,-1.72634 2.43641,-3.41718 4.22045,-3.74115 l 71.16186,-13.24272 c 1.77516,-0.32396 3.23523,-2.08582 3.23523,-3.89648 l 0.009,-75.08498 c 0.005,-1.8151 -1.45119,-3.56364 -3.22636,-3.90092"
     id="path1070"
     style="stroke-width:4.43791" />
</svg>
