<?xml version="1.0" encoding="UTF-8" standalone="no"?>
<svg
   xmlns:dc="http://purl.org/dc/elements/1.1/"
   xmlns:cc="http://creativecommons.org/ns#"
   xmlns:rdf="http://www.w3.org/1999/02/22-rdf-syntax-ns#"
   xmlns:svg="http://www.w3.org/2000/svg"
   xmlns="http://www.w3.org/2000/svg"
   xmlns:sodipodi="http://sodipodi.sourceforge.net/DTD/sodipodi-0.dtd"
   xmlns:inkscape="http://www.inkscape.org/namespaces/inkscape"
   id="ac356da0-b129-4ca5-aecc-4700531dd101"
   data-name="Layer 1"
   width="1129"
   height="663"
   viewBox="0 0 1129 663"
   version="1.1"
   sodipodi:docname="code.svg"
   inkscape:version="1.0.2 (1.0.2+r75+1)">
  <metadata
     id="metadata83">
    <rdf:RDF>
      <cc:Work
         rdf:about="">
        <dc:format>image/svg+xml</dc:format>
        <dc:type
           rdf:resource="http://purl.org/dc/dcmitype/StillImage" />
        <dc:title>docu_tree</dc:title>
      </cc:Work>
    </rdf:RDF>
  </metadata>
  <defs
     id="defs81" />
  <sodipodi:namedview
     pagecolor="#ffffff"
     bordercolor="#666666"
     borderopacity="1"
     objecttolerance="10"
     gridtolerance="10"
     guidetolerance="10"
     inkscape:pageopacity="0"
     inkscape:pageshadow="2"
     inkscape:window-width="1366"
     inkscape:window-height="722"
     id="namedview79"
     showgrid="false"
     inkscape:zoom="0.44042232"
     inkscape:cx="368.7596"
     inkscape:cy="320.42215"
     inkscape:window-x="0"
     inkscape:window-y="0"
     inkscape:window-maximized="1"
     inkscape:current-layer="ac356da0-b129-4ca5-aecc-4700531dd101" />
  <title
     id="title2">docu_tree</title>
  <g
     id="g1088"
     transform="matrix(1.3148794,0,0,1.3148794,227.89153,-5.108469)">
    <path
       style="fill:#ccd8e5"
       d="m 503.665,66.8 v 316.343 c 0,17.909 -14.509,32.429 -32.417,32.429 H 40.754 c -17.909,0 -32.418,-14.52 -32.418,-32.429 V 66.8 c 0,-17.909 14.509,-32.429 32.418,-32.429 h 430.493 c 17.908,0 32.418,14.52 32.418,32.429 z"
       id="path1003" />
    <path
       style="fill:#dfeaf4"
       d="m 503.665,66.8 v 316.343 c 0,17.909 -14.509,32.429 -32.417,32.429 H 183.344 L 207.096,357.647 339.655,34.371 h 131.592 c 17.908,0 32.418,14.52 32.418,32.429 z"
       id="path1005" />
    <path
       style="fill:#b8e9f2"
       d="M 503.665,66.8 V 357.647 H 8.337 V 66.8 c 0,-17.909 14.509,-32.429 32.418,-32.429 h 430.493 c 17.907,0 32.417,14.52 32.417,32.429 z"
       id="path1007" />
    <path
       style="fill:#d4f7fc"
       d="M 503.665,66.8 V 357.647 H 207.097 L 339.655,34.371 h 131.592 c 17.908,0 32.418,14.52 32.418,32.429 z"
       id="path1009" />
    <polygon
       style="fill:#ccd8e5"
       points="343.454,480.173 168.547,480.173 181.034,450.955 196.165,415.571 315.836,415.571 330.967,450.955 "
       id="polygon1011" />
    <polygon
       style="fill:#bac6d1"
       points="196.165,415.571 315.836,415.571 330.967,450.955 181.034,450.955 "
       id="polygon1013" />
    <path
       d="m 326.752,266.245 c -2.132,0 -4.265,-0.813 -5.892,-2.441 -3.254,-3.254 -3.254,-8.53 0,-11.783 l 47.92,-47.919 -47.92,-47.92 c -3.254,-3.254 -3.254,-8.53 0,-11.783 3.256,-3.255 8.531,-3.254 11.784,0 l 53.811,53.811 c 3.254,3.254 3.254,8.53 0,11.783 l -53.811,53.811 c -1.627,1.627 -3.76,2.441 -5.892,2.441 z"
       id="path1015" />
    <path
       d="m 185.25,266.245 c -2.132,0 -4.265,-0.813 -5.891,-2.441 l -53.811,-53.811 c -3.254,-3.254 -3.254,-8.53 0,-11.783 l 53.811,-53.811 c 3.254,-3.254 8.53,-3.254 11.783,0 3.254,3.254 3.254,8.53 0,11.783 l -47.919,47.92 47.919,47.919 c 3.254,3.254 3.254,8.53 0,11.783 -1.627,1.627 -3.76,2.441 -5.892,2.441 z"
       id="path1017" />
    <path
       d="m 231.302,290.421 c -0.833,0 -1.681,-0.126 -2.519,-0.391 -4.387,-1.39 -6.817,-6.072 -5.427,-10.46 l 49.405,-155.967 c 1.389,-4.386 6.072,-6.817 10.458,-5.427 4.387,1.39 6.817,6.072 5.427,10.46 l -49.404,155.967 c -1.124,3.549 -4.405,5.818 -7.94,5.818 z"
       id="path1019" />
    <path
       d="M 471.246,24.766 H 40.754 C 18.283,24.766 0,43.049 0,65.52 v 59.227 c 0,4.602 3.731,8.332 8.332,8.332 4.601,0 8.332,-3.731 8.332,-8.332 V 65.52 c 0,-13.284 10.807,-24.09 24.09,-24.09 h 430.492 c 13.284,0 24.09,10.807 24.09,24.09 v 284.411 h -52.21 c -4.602,0 -8.332,3.731 -8.332,8.332 0,4.601 3.731,8.332 8.332,8.332 h 52.21 v 15.273 c 0,13.284 -10.807,24.09 -24.09,24.09 H 315.836 196.164 40.754 c -13.284,0 -24.09,-10.807 -24.09,-24.09 v -15.273 h 398.688 c 4.602,0 8.332,-3.731 8.332,-8.332 0,-4.601 -3.731,-8.332 -8.332,-8.332 H 16.664 V 152.522 c 0,-4.602 -3.731,-8.332 -8.332,-8.332 C 3.731,144.19 0,147.92 0,152.522 V 381.87 c 0,22.472 18.283,40.754 40.754,40.754 H 183.54 l -20.494,47.945 h -40.034 c -4.602,0 -8.332,3.731 -8.332,8.332 0,4.601 3.731,8.332 8.332,8.332 h 265.975 c 4.602,0 8.332,-3.731 8.332,-8.332 0,-4.601 -3.731,-8.332 -8.332,-8.332 h -40.034 l -20.494,-47.945 h 142.786 c 22.472,0 40.754,-18.282 40.754,-40.754 V 65.52 C 512,43.049 493.717,24.766 471.246,24.766 Z M 330.83,470.568 H 181.17 l 14.238,-33.31 h 121.185 z"
       id="path1021" />
    <path
       d="m 253.972,376.221 c -3.517,0.879 -6.116,4.048 -6.291,7.67 -0.364,7.534 9.106,11.629 14.33,6.172 2.663,-2.782 3.078,-7.177 0.913,-10.385 -1.914,-2.906 -5.583,-4.299 -8.952,-3.457 z"
       id="path1023" />
    <g
       id="g1025">
</g>
    <g
       id="g1027">
</g>
    <g
       id="g1029">
</g>
    <g
       id="g1031">
</g>
    <g
       id="g1033">
</g>
    <g
       id="g1035">
</g>
    <g
       id="g1037">
</g>
    <g
       id="g1039">
</g>
    <g
       id="g1041">
</g>
    <g
       id="g1043">
</g>
    <g
       id="g1045">
</g>
    <g
       id="g1047">
</g>
    <g
       id="g1049">
</g>
    <g
       id="g1051">
</g>
    <g
       id="g1053">
</g>
  </g>
</svg>
