<?xml version="1.0" encoding="UTF-8" standalone="no"?>
<svg
   xmlns:dc="http://purl.org/dc/elements/1.1/"
   xmlns:cc="http://creativecommons.org/ns#"
   xmlns:rdf="http://www.w3.org/1999/02/22-rdf-syntax-ns#"
   xmlns:svg="http://www.w3.org/2000/svg"
   xmlns="http://www.w3.org/2000/svg"
   xmlns:sodipodi="http://sodipodi.sourceforge.net/DTD/sodipodi-0.dtd"
   xmlns:inkscape="http://www.inkscape.org/namespaces/inkscape"
   width="1041.277"
   height="554.141"
   viewBox="0 0 1041.277 554.141"
   version="1.1"
   id="svg158"
   sodipodi:docname="community_3.svg"
   inkscape:version="1.0.1 (0767f8302a, 2020-10-17)">
  <metadata
     id="metadata164">
    <rdf:RDF>
      <cc:Work
         rdf:about="">
        <dc:format>image/svg+xml</dc:format>
        <dc:type
           rdf:resource="http://purl.org/dc/dcmitype/StillImage" />
        <dc:title></dc:title>
      </cc:Work>
    </rdf:RDF>
  </metadata>
  <defs
     id="defs162">
    <clipPath
       clipPathUnits="userSpaceOnUse"
       id="clipPath879">
      <rect
         style="opacity:0.409504;fill:#666666;fill-opacity:1;stroke:#ffcc00;stroke-width:7;stroke-linecap:round;stroke-linejoin:round;paint-order:stroke fill markers"
         id="rect881"
         width="391.83539"
         height="621.96057"
         x="578.66565"
         y="576.06854" />
    </clipPath>
    <clipPath
       clipPathUnits="userSpaceOnUse"
       id="clipPath967">
      <rect
         style="opacity:1;fill:#00a24d;fill-opacity:1;stroke:#ffcc00;stroke-width:5.49792;stroke-linecap:round;stroke-linejoin:round;paint-order:stroke fill markers"
         id="rect969"
         width="248.70163"
         height="516.97449"
         x="497.09763"
         y="604.93756" />
    </clipPath>
  </defs>
  <sodipodi:namedview
     pagecolor="#ffffff"
     bordercolor="#666666"
     borderopacity="1"
     objecttolerance="10"
     gridtolerance="10"
     guidetolerance="10"
     inkscape:pageopacity="0"
     inkscape:pageshadow="2"
     inkscape:window-width="1866"
     inkscape:window-height="1016"
     id="namedview160"
     showgrid="false"
     inkscape:zoom="1.0890474"
     inkscape:cx="520.63849"
     inkscape:cy="277.0705"
     inkscape:window-x="54"
     inkscape:window-y="27"
     inkscape:window-maximized="1"
     inkscape:current-layer="svg158"
     inkscape:document-rotation="0" />
  <circle
     style="fill:#008f44;fill-opacity:1"
     cx="520.63849"
     cy="277.0705"
     r="255.99699"
     id="circle1098" />
  <circle
     style="opacity:1;fill:#00a24d;fill-opacity:1"
     cx="571.32397"
     cy="879.67493"
     r="255.99699"
     id="circle1098-3"
     clip-path="url(#clipPath879)"
     transform="translate(-52.156614,-602.61071)" />
  <g
     id="g1134"
     transform="translate(264.64149,21.073502)" />
  <g
     id="g1136"
     transform="translate(264.64149,21.073502)" />
  <g
     id="g1138"
     transform="translate(264.64149,21.073502)" />
  <g
     id="g1140"
     transform="translate(264.64149,21.073502)" />
  <g
     id="g1142"
     transform="translate(264.64149,21.073502)" />
  <g
     id="g1144"
     transform="translate(264.64149,21.073502)" />
  <g
     id="g1146"
     transform="translate(264.64149,21.073502)" />
  <g
     id="g1148"
     transform="translate(264.64149,21.073502)" />
  <g
     id="g1150"
     transform="translate(264.64149,21.073502)" />
  <g
     id="g1152"
     transform="translate(264.64149,21.073502)" />
  <g
     id="g1154"
     transform="translate(264.64149,21.073502)" />
  <g
     id="g1156"
     transform="translate(264.64149,21.073502)" />
  <g
     id="g1158"
     transform="translate(264.64149,21.073502)" />
  <g
     id="g1160"
     transform="translate(264.64149,21.073502)" />
  <g
     id="g1162"
     transform="translate(264.64149,21.073502)" />
  <path
     style="fill:#f9f9f9;stroke-width:0.843787"
     d="m 448.33298,434.46971 c -39.67915,-14.61589 -73.35561,-27.19787 -74.83667,-27.96 -1.48103,-0.7621 -2.99985,-2.00232 -3.37514,-2.75604 -0.3753,-0.75375 -0.87223,-21.6531 -1.10427,-46.44299 l -0.42188,-45.07252 -16.87578,-6.21097 c -17.80179,-6.55176 -20.68293,-8.32973 -20.66204,-12.75062 0.007,-1.48731 6.29882,-12.32266 18.19686,-31.33749 10.16959,-16.25252 18.02937,-29.66353 17.83053,-30.42392 -0.1955,-0.74788 -8.05642,-13.63412 -17.46854,-28.63612 -9.41214,-15.00201 -17.51824,-28.35006 -18.01358,-29.66239 -1.52727,-4.04616 0.91429,-7.84153 6.35343,-9.87635 2.46493,-0.92214 36.11203,-13.3347 74.7713,-27.58347 71.14239,-26.22117 72.54404,-26.66588 75.72529,-24.02567 0.49106,0.40754 8.08729,12.32302 16.88049,26.47884 8.79319,14.15581 16.17751,25.73786 16.40954,25.73786 0.23217,0 7.61634,-11.58205 16.40953,-25.73786 8.79321,-14.15582 16.42349,-26.09958 16.95617,-26.54167 3.16619,-2.6277 5.16408,-1.98897 79.0719,25.28005 40.26078,14.85465 73.90749,27.38629 74.77044,27.84813 2.40392,1.28653 3.95262,5.7239 2.92878,8.39169 -0.46774,1.21886 -9.07661,15.39586 -19.13082,31.50452 l -18.28035,29.28843 v 83.52849 c 0,57.58807 -0.28064,84.14454 -0.90387,85.51219 -0.49708,1.09103 -1.64864,2.44886 -2.55898,3.01739 -2.18193,1.36262 -145.38358,54.10092 -148.28658,54.61095 -1.54789,0.27204 -24.57471,-7.83244 -74.38576,-26.18046 z m 65.61441,-89.40945 -0.221,-32.43125 -11.37008,18.2978 c -12.58406,20.25155 -14.73293,22.9386 -18.3441,22.9386 -1.33149,0 -24.04108,-7.97379 -50.46577,-17.71954 -26.42466,-9.74576 -48.34045,-17.71955 -48.70178,-17.71955 -0.36129,0 -0.55812,17.15801 -0.43739,38.12886 l 0.21941,38.12886 64.54979,23.78098 64.54976,23.781 0.221,-32.37728 c 0.12151,-17.8075 0.12151,-46.97132 0,-64.80848 z m 87.11123,71.00322 57.79944,-21.31483 0.21559,-75.70973 c 0.11831,-41.64033 -0.0192,-75.70973 -0.3068,-75.70973 -0.28734,0 -29.52655,10.68725 -64.97617,23.74941 l -64.45385,23.74937 v 75.80164 75.80161 l 6.96124,-2.52646 c 3.82869,-1.38953 32.97099,-12.11811 64.76074,-23.84128 z M 495.48574,313.30182 c 8.06682,-12.99231 14.52179,-23.76229 14.34441,-23.93329 -0.70525,-0.67986 -129.86771,-47.97985 -130.12953,-47.65412 -2.86999,3.57061 -29.39173,47.56272 -28.80633,47.78156 30.83224,11.52637 128.48493,47.39 129.08072,47.40581 0.46408,0.0127 7.44392,-10.60768 15.51073,-23.59996 z m 40.60117,-65.0185 c 9.51372,-15.33669 18.13777,-28.55942 19.16454,-29.3838 1.0268,-0.82443 7.00703,-3.354 13.28947,-5.62134 6.28244,-2.2673 11.42266,-4.33918 11.42279,-4.60413 10e-5,-0.26502 -13.07634,-5.28718 -29.05881,-11.16045 l -29.05898,-10.6787 -61.18999,22.51761 c -33.65449,12.38468 -61.01273,22.69485 -60.79612,22.91149 0.40186,0.40182 117.7395,43.85552 118.50755,43.88694 0.23216,0.01 8.20586,-12.53094 17.71955,-27.86762 z m 64.72066,0.0561 c 32.85594,-12.09502 60.34634,-22.63181 61.08972,-23.41512 1.0394,-1.09517 20.83931,-32.52503 23.88494,-37.91433 0.33614,-0.5948 -2.44847,0.0727 -6.41478,1.53735 -3.85481,1.42362 -30.55046,11.26894 -59.32361,21.87848 -28.77317,10.60949 -52.95584,19.53683 -53.73926,19.83849 -0.78341,0.30169 -6.43972,8.58558 -12.56956,18.40871 -6.12984,9.82316 -11.70273,18.71462 -12.38421,19.75879 -0.68148,1.04419 -1.02355,1.89853 -0.76016,1.89853 0.26342,0 27.36099,-9.8959 60.21692,-21.9909 z M 444.95781,199.00725 c 35.03831,-12.87205 64.02049,-23.68712 64.40488,-24.03349 1.02118,-0.92016 -28.53143,-47.72409 -29.93213,-47.40494 -2.49522,0.56855 -127.75564,46.78928 -128.38329,47.37308 -0.76163,0.70844 28.7657,48.33886 29.63919,47.81083 0.31095,-0.18783 29.23307,-10.87343 64.27135,-23.74548 z m 196.81914,-12.72669 c 20.99672,-7.70852 38.74538,-14.32779 39.4415,-14.70956 1.12505,-0.61697 1.12505,-0.745 0,-1.15242 -0.69612,-0.25194 -27.08558,-9.96408 -58.64325,-21.58225 -31.55768,-11.61817 -57.90147,-21.21484 -58.54175,-21.32595 -1.25265,-0.21737 -30.95244,46.43492 -30.10251,47.28485 0.65128,0.65129 67.25866,25.33851 68.60989,25.42944 0.58316,0.0392 18.23943,-6.23559 39.23612,-13.94411 z"
     id="path849" />
  <g
     id="g915"
     transform="matrix(0.27327549,0.03606181,-0.03606181,0.27327549,421.34196,403.06624)"
     inkscape:transform-center-x="71.077043"
     inkscape:transform-center-y="-292.08149">
    <polygon
       style="fill:#ffffff"
       points="334.556,161.081 345.644,171.512 266.428,255.997 345.644,340.482 334.556,350.913 255.997,267.127 177.438,350.913 166.356,340.482 245.566,255.997 166.356,171.512 177.438,161.081 255.997,244.867 "
       id="polygon1100"
       transform="translate(342.33886,-569.79796)" />
    <path
       style="fill:#ecf0f1"
       d="m 598.33586,-373.90096 c 33.191,0 60.112,26.909 60.112,60.1 0,33.191 -26.921,60.106 -60.112,60.106 -33.191,0 -60.106,-26.915 -60.106,-60.106 0,-33.191 26.915,-60.1 60.106,-60.1 z"
       id="path1102" />
    <path
       style="fill:#ffe356"
       d="m 598.33586,-368.81796 c 30.384,0 55.017,24.626 55.017,55.017 0,30.378 -24.626,55.017 -55.017,55.017 -30.378,0 -55.017,-24.638 -55.017,-55.017 0,-30.39 24.639,-55.017 55.017,-55.017 z"
       id="path1104" />
    <path
       style="fill:#ffffff"
       d="m 577.83486,-292.85396 h 1.433 l 8.402,-4.583 1.367,-5.348 c -2,-2.018 -4.071,-5.438 -5.95,-9.648 -0.151,0.024 -0.307,0.036 -0.47,0.036 -2.222,0 -4.421,-2.415 -4.914,-5.396 -0.385,-2.337 0.385,-4.324 1.807,-5.077 -1.879,-9.582 -3.126,-24.295 13.376,-27.933 9.901,-2.18 13.436,5.463 13.87,6.3 5.992,-3.361 9.799,1.68 10.774,4.348 1.771,4.824 1.192,13.798 0.289,17.761 1,0.952 1.482,2.656 1.156,4.601 -0.488,2.933 -2.62,5.318 -4.806,5.396 -1.765,3.873 -4.125,7.197 -6.535,9.612 l 1.367,5.348 h 0.114 l 8.173,4.583 h 1.548 c 10.082,0 18.447,7.414 19.501,16.815 -10.034,10.624 -24.247,17.261 -40.008,17.261 -15.761,0 -29.975,-6.637 -40.008,-17.261 1.054,-9.419 9.419,-16.815 19.501,-16.815 z"
       id="path1106" />
    <g
       id="g1116"
       transform="translate(342.33886,-569.79796)">
      <path
         style="fill:#ecf0f1"
         d="m 148.686,82.889 c 32.39,0 58.66,26.253 58.66,58.642 0,32.384 -26.271,58.654 -58.66,58.654 -32.389,0 -58.654,-26.271 -58.654,-58.654 0,-32.389 26.265,-58.642 58.654,-58.642 z"
         id="path1108" />
      <path
         style="fill:#ecf0f1"
         d="m 148.686,311.809 c 32.39,0 58.66,26.253 58.66,58.642 0,32.389 -26.271,58.66 -58.66,58.66 -32.389,0 -58.654,-26.271 -58.654,-58.66 0,-32.389 26.265,-58.642 58.654,-58.642 z"
         id="path1110" />
      <path
         style="fill:#ecf0f1"
         d="m 363.314,311.809 c 32.39,0 58.654,26.253 58.654,58.642 0,32.389 -26.265,58.66 -58.654,58.66 -32.389,0 -58.66,-26.271 -58.66,-58.66 0,-32.389 26.27,-58.642 58.66,-58.642 z"
         id="path1112" />
      <path
         style="fill:#ecf0f1"
         d="m 363.314,82.889 c 32.39,0 58.654,26.253 58.654,58.642 0,32.384 -26.265,58.654 -58.654,58.654 -32.389,0 -58.66,-26.271 -58.66,-58.654 0,-32.389 26.27,-58.642 58.66,-58.642 z"
         id="path1114" />
    </g>
    <path
       style="fill:#83cf8f;fill-opacity:1"
       d="m 491.02486,-480.67496 c 28.945,0 52.421,23.464 52.421,52.409 0,28.945 -23.476,52.421 -52.421,52.421 -28.945,0 -52.421,-23.476 -52.421,-52.421 0,-28.945 23.477,-52.409 52.421,-52.409 z"
       id="path1118" />
    <path
       style="fill:#ffffff"
       d="m 471.97586,-407.50096 h 1.331 l 7.805,-4.258 1.271,-4.969 c -1.861,-1.879 -3.782,-5.059 -5.529,-8.962 -0.145,0.024 -0.289,0.03 -0.44,0.03 -2.06,0 -4.101,-2.246 -4.565,-5.017 -0.361,-2.168 0.361,-4.017 1.674,-4.716 -1.747,-8.901 -2.903,-22.573 12.431,-25.951 9.197,-2.03 12.485,5.077 12.882,5.854 5.571,-3.126 9.106,1.56 10.016,4.041 1.644,4.481 1.108,12.81 0.271,16.496 0.927,0.885 1.373,2.469 1.072,4.276 -0.452,2.722 -2.439,4.939 -4.463,5.011 -1.638,3.602 -3.836,6.685 -6.071,8.932 l 1.271,4.969 h 0.108 l 7.588,4.258 h 1.445 c 9.552,0 17.441,7.161 18.17,16.135 -9.498,9.582 -22.669,15.52 -37.226,15.52 -14.551,0 -27.722,-5.938 -37.22,-15.52 0.723,-8.992 8.618,-16.135 18.17,-16.135 z"
       id="path1120" />
    <path
       style="fill:#f498c4;fill-opacity:1"
       d="m 705.64686,-480.67496 c 28.957,0 52.421,23.464 52.421,52.409 0,28.945 -23.464,52.421 -52.421,52.421 -28.945,0 -52.409,-23.476 -52.409,-52.421 0,-28.945 23.464,-52.409 52.409,-52.409 z"
       id="path1122" />
    <path
       style="fill:#ffffff"
       d="m 686.59686,-407.50096 h 1.337 l 7.805,-4.258 1.271,-4.969 c -1.861,-1.879 -3.782,-5.059 -5.535,-8.962 -0.139,0.024 -0.283,0.03 -0.434,0.03 -2.06,0 -4.107,-2.246 -4.565,-5.017 -0.361,-2.168 0.361,-4.017 1.674,-4.716 -1.747,-8.901 -2.903,-22.573 12.431,-25.951 9.197,-2.03 12.485,5.077 12.882,5.854 5.571,-3.126 9.106,1.56 10.016,4.041 1.644,4.481 1.108,12.81 0.271,16.496 0.921,0.885 1.373,2.469 1.072,4.276 -0.452,2.722 -2.439,4.939 -4.463,5.011 -1.638,3.602 -3.836,6.685 -6.071,8.932 l 1.271,4.969 h 0.108 l 7.589,4.258 h 1.445 c 9.552,0 17.441,7.161 18.17,16.135 -9.498,9.582 -22.669,15.52 -37.226,15.52 -14.557,0 -27.722,-5.938 -37.22,-15.52 0.729,-8.992 8.618,-16.135 18.17,-16.135 v 0.006 z"
       id="path1124" />
    <path
       style="fill:#ff5555"
       d="m 491.02486,-251.75596 c 28.945,0 52.421,23.464 52.421,52.409 0,28.957 -23.476,52.421 -52.421,52.421 -28.945,0 -52.421,-23.464 -52.421,-52.421 0,-28.945 23.477,-52.409 52.421,-52.409 z"
       id="path1126" />
    <path
       style="fill:#ffffff"
       d="m 529.97886,-164.27196 c -9.594,10.648 -23.494,17.345 -38.954,17.345 -15.46,0 -29.36,-6.697 -38.954,-17.345 1.728,-8.468 9.546,-14.906 18.863,-14.906 h 1.409 l 8.233,-4.493 1.337,-5.24 c -1.963,-1.981 -3.987,-5.33 -5.83,-9.456 -0.151,0.024 -0.301,0.036 -0.458,0.036 -2.174,0 -4.33,-2.367 -4.818,-5.288 -0.379,-2.283 0.379,-4.234 1.771,-4.969 -1.843,-9.389 -3.066,-23.807 13.105,-27.373 9.702,-2.132 13.165,5.354 13.587,6.173 5.872,-3.294 9.606,1.644 10.558,4.258 1.735,4.728 1.168,13.515 0.289,17.399 0.976,0.927 1.451,2.602 1.132,4.511 -0.476,2.873 -2.572,5.21 -4.71,5.288 -1.728,3.8 -4.047,7.052 -6.402,9.419 l 1.343,5.24 h 0.114 l 8.004,4.493 h 1.524 c 9.305,0 17.128,6.456 18.863,14.906 h -0.006 z"
       id="path1128" />
    <g
       id="g893">
      <path
         style="fill:#00ccf7;fill-opacity:1"
         d="m 705.64686,-251.75596 c 28.957,0 52.421,23.464 52.421,52.409 0,28.957 -23.464,52.421 -52.421,52.421 -28.945,0 -52.409,-23.464 -52.409,-52.421 0,-28.945 23.464,-52.409 52.409,-52.409 z"
         id="path1130" />
      <path
         style="fill:#ffffff"
         d="m 744.75186,-164.43396 c -9.6,10.744 -23.554,17.508 -39.105,17.508 -15.538,0 -29.499,-6.763 -39.093,-17.508 2.036,-8.173 9.727,-14.286 18.845,-14.286 h 1.421 l 8.299,-4.529 1.349,-5.276 c -1.975,-1.999 -4.017,-5.372 -5.878,-9.528 -0.151,0.024 -0.301,0.036 -0.464,0.036 -2.186,0 -4.366,-2.385 -4.854,-5.33 -0.379,-2.307 0.385,-4.27 1.783,-5.011 -1.855,-9.468 -3.084,-24 13.214,-27.59 9.775,-2.15 13.274,5.396 13.695,6.221 5.92,-3.318 9.678,1.662 10.642,4.294 1.747,4.764 1.18,13.623 0.289,17.538 0.988,0.94 1.464,2.62 1.144,4.547 -0.482,2.897 -2.59,5.252 -4.746,5.33 -1.741,3.83 -4.083,7.113 -6.456,9.492 l 1.349,5.282 h 0.114 l 8.07,4.529 h 1.536 c 9.112,0 16.809,6.131 18.845,14.292 v -0.011 z"
         id="path1132" />
    </g>
  </g>
</svg>
