<?xml version="1.0" encoding="UTF-8" standalone="no"?>
<svg
   xmlns:dc="http://purl.org/dc/elements/1.1/"
   xmlns:cc="http://creativecommons.org/ns#"
   xmlns:rdf="http://www.w3.org/1999/02/22-rdf-syntax-ns#"
   xmlns:svg="http://www.w3.org/2000/svg"
   xmlns="http://www.w3.org/2000/svg"
   xmlns:sodipodi="http://sodipodi.sourceforge.net/DTD/sodipodi-0.dtd"
   xmlns:inkscape="http://www.inkscape.org/namespaces/inkscape"
   width="1041.277"
   height="554.141"
   viewBox="0 0 1041.277 554.141"
   version="1.1"
   id="svg158"
   sodipodi:docname="community.svg"
   inkscape:version="1.0.2 (1.0.2+r75+1)">
  <metadata
     id="metadata164">
    <rdf:RDF>
      <cc:Work
         rdf:about="">
        <dc:format>image/svg+xml</dc:format>
        <dc:type
           rdf:resource="http://purl.org/dc/dcmitype/StillImage" />
        <dc:title></dc:title>
      </cc:Work>
    </rdf:RDF>
  </metadata>
  <defs
     id="defs162" />
  <sodipodi:namedview
     pagecolor="#ffffff"
     bordercolor="#666666"
     borderopacity="1"
     objecttolerance="10"
     gridtolerance="10"
     guidetolerance="10"
     inkscape:pageopacity="0"
     inkscape:pageshadow="2"
     inkscape:window-width="1366"
     inkscape:window-height="722"
     id="namedview160"
     showgrid="false"
     inkscape:zoom="0.37260405"
     inkscape:cx="231.57275"
     inkscape:cy="369.62984"
     inkscape:window-x="0"
     inkscape:window-y="0"
     inkscape:window-maximized="1"
     inkscape:current-layer="svg158" />
  <g
     id="g1204"
     transform="translate(264.64149,21.073502)">
    <circle
       style="fill:#6b7f9e"
       cx="255.99699"
       cy="255.99699"
       r="255.99699"
       id="circle1098" />
    <polygon
       style="fill:#ffffff"
       points="345.644,340.482 334.556,350.913 255.997,267.127 177.438,350.913 166.356,340.482 245.566,255.997 166.356,171.512 177.438,161.081 255.997,244.867 334.556,161.081 345.644,171.512 266.428,255.997 "
       id="polygon1100" />
    <path
       style="fill:#ecf0f1"
       d="m 255.997,195.897 c 33.191,0 60.112,26.909 60.112,60.1 0,33.191 -26.921,60.106 -60.112,60.106 -33.191,0 -60.106,-26.915 -60.106,-60.106 0,-33.191 26.915,-60.1 60.106,-60.1 z"
       id="path1102" />
    <path
       style="fill:#ffe356"
       d="m 255.997,200.98 c 30.384,0 55.017,24.626 55.017,55.017 0,30.378 -24.626,55.017 -55.017,55.017 -30.378,0 -55.017,-24.638 -55.017,-55.017 0,-30.39 24.639,-55.017 55.017,-55.017 z"
       id="path1104" />
    <path
       style="fill:#ffffff"
       d="m 235.496,276.944 h 1.433 l 8.402,-4.583 1.367,-5.348 c -2,-2.018 -4.071,-5.438 -5.95,-9.648 -0.151,0.024 -0.307,0.036 -0.47,0.036 -2.222,0 -4.421,-2.415 -4.914,-5.396 -0.385,-2.337 0.385,-4.324 1.807,-5.077 -1.879,-9.582 -3.126,-24.295 13.376,-27.933 9.901,-2.18 13.436,5.463 13.87,6.3 5.992,-3.361 9.799,1.68 10.774,4.348 1.771,4.824 1.192,13.798 0.289,17.761 1,0.952 1.482,2.656 1.156,4.601 -0.488,2.933 -2.62,5.318 -4.806,5.396 -1.765,3.873 -4.125,7.197 -6.535,9.612 l 1.367,5.348 h 0.114 l 8.173,4.583 h 1.548 c 10.082,0 18.447,7.414 19.501,16.815 -10.034,10.624 -24.247,17.261 -40.008,17.261 -15.761,0 -29.975,-6.637 -40.008,-17.261 1.054,-9.419 9.419,-16.815 19.501,-16.815 z"
       id="path1106" />
    <g
       id="g1116">
	<path
   style="fill:#ecf0f1"
   d="m 148.686,82.889 c 32.39,0 58.66,26.253 58.66,58.642 0,32.384 -26.271,58.654 -58.66,58.654 -32.389,0 -58.654,-26.271 -58.654,-58.654 0,-32.389 26.265,-58.642 58.654,-58.642 z"
   id="path1108" />

	<path
   style="fill:#ecf0f1"
   d="m 148.686,311.809 c 32.39,0 58.66,26.253 58.66,58.642 0,32.389 -26.271,58.66 -58.66,58.66 -32.389,0 -58.654,-26.271 -58.654,-58.66 0,-32.389 26.265,-58.642 58.654,-58.642 z"
   id="path1110" />

	<path
   style="fill:#ecf0f1"
   d="m 363.314,311.809 c 32.39,0 58.654,26.253 58.654,58.642 0,32.389 -26.265,58.66 -58.654,58.66 -32.389,0 -58.66,-26.271 -58.66,-58.66 0,-32.389 26.27,-58.642 58.66,-58.642 z"
   id="path1112" />

	<path
   style="fill:#ecf0f1"
   d="m 363.314,82.889 c 32.39,0 58.654,26.253 58.654,58.642 0,32.384 -26.265,58.654 -58.654,58.654 -32.389,0 -58.66,-26.271 -58.66,-58.654 0,-32.389 26.27,-58.642 58.66,-58.642 z"
   id="path1114" />

</g>
    <path
       style="fill:#ff7069"
       d="m 148.686,89.123 c 28.945,0 52.421,23.464 52.421,52.409 0,28.945 -23.476,52.421 -52.421,52.421 -28.945,0 -52.421,-23.476 -52.421,-52.421 0,-28.945 23.477,-52.409 52.421,-52.409 z"
       id="path1118" />
    <path
       style="fill:#ffffff"
       d="m 129.637,162.297 h 1.331 l 7.805,-4.258 1.271,-4.969 c -1.861,-1.879 -3.782,-5.059 -5.529,-8.962 -0.145,0.024 -0.289,0.03 -0.44,0.03 -2.06,0 -4.101,-2.246 -4.565,-5.017 -0.361,-2.168 0.361,-4.017 1.674,-4.716 -1.747,-8.901 -2.903,-22.573 12.431,-25.951 9.197,-2.03 12.485,5.077 12.882,5.854 5.571,-3.126 9.106,1.56 10.016,4.041 1.644,4.481 1.108,12.81 0.271,16.496 0.927,0.885 1.373,2.469 1.072,4.276 -0.452,2.722 -2.439,4.939 -4.463,5.011 -1.638,3.602 -3.836,6.685 -6.071,8.932 l 1.271,4.969 h 0.108 l 7.588,4.258 h 1.445 c 9.552,0 17.441,7.161 18.17,16.135 -9.498,9.582 -22.669,15.52 -37.226,15.52 -14.551,0 -27.722,-5.938 -37.22,-15.52 0.723,-8.992 8.618,-16.135 18.17,-16.135 z"
       id="path1120" />
    <path
       style="fill:#83cf8f"
       d="m 363.308,89.123 c 28.957,0 52.421,23.464 52.421,52.409 0,28.945 -23.464,52.421 -52.421,52.421 -28.945,0 -52.409,-23.476 -52.409,-52.421 0,-28.945 23.464,-52.409 52.409,-52.409 z"
       id="path1122" />
    <path
       style="fill:#ffffff"
       d="m 344.258,162.297 h 1.337 l 7.805,-4.258 1.271,-4.969 c -1.861,-1.879 -3.782,-5.059 -5.535,-8.962 -0.139,0.024 -0.283,0.03 -0.434,0.03 -2.06,0 -4.107,-2.246 -4.565,-5.017 -0.361,-2.168 0.361,-4.017 1.674,-4.716 -1.747,-8.901 -2.903,-22.573 12.431,-25.951 9.197,-2.03 12.485,5.077 12.882,5.854 5.571,-3.126 9.106,1.56 10.016,4.041 1.644,4.481 1.108,12.81 0.271,16.496 0.921,0.885 1.373,2.469 1.072,4.276 -0.452,2.722 -2.439,4.939 -4.463,5.011 -1.638,3.602 -3.836,6.685 -6.071,8.932 l 1.271,4.969 h 0.108 l 7.589,4.258 h 1.445 c 9.552,0 17.441,7.161 18.17,16.135 -9.498,9.582 -22.669,15.52 -37.226,15.52 -14.557,0 -27.722,-5.938 -37.22,-15.52 0.729,-8.992 8.618,-16.135 18.17,-16.135 v 0.006 z"
       id="path1124" />
    <path
       style="fill:#83cf8f"
       d="m 148.686,318.042 c 28.945,0 52.421,23.464 52.421,52.409 0,28.957 -23.476,52.421 -52.421,52.421 -28.945,0 -52.421,-23.464 -52.421,-52.421 0,-28.945 23.477,-52.409 52.421,-52.409 z"
       id="path1126" />
    <path
       style="fill:#ffffff"
       d="m 187.64,405.526 c -9.594,10.648 -23.494,17.345 -38.954,17.345 -15.46,0 -29.36,-6.697 -38.954,-17.345 1.728,-8.468 9.546,-14.906 18.863,-14.906 h 1.409 l 8.233,-4.493 1.337,-5.24 c -1.963,-1.981 -3.987,-5.33 -5.83,-9.456 -0.151,0.024 -0.301,0.036 -0.458,0.036 -2.174,0 -4.33,-2.367 -4.818,-5.288 -0.379,-2.283 0.379,-4.234 1.771,-4.969 -1.843,-9.389 -3.066,-23.807 13.105,-27.373 9.702,-2.132 13.165,5.354 13.587,6.173 5.872,-3.294 9.606,1.644 10.558,4.258 1.735,4.728 1.168,13.515 0.289,17.399 0.976,0.927 1.451,2.602 1.132,4.511 -0.476,2.873 -2.572,5.21 -4.71,5.288 -1.728,3.8 -4.047,7.052 -6.402,9.419 l 1.343,5.24 h 0.114 l 8.004,4.493 h 1.524 c 9.305,0 17.128,6.456 18.863,14.906 h -0.006 z"
       id="path1128" />
    <path
       style="fill:#ff7069"
       d="m 363.308,318.042 c 28.957,0 52.421,23.464 52.421,52.409 0,28.957 -23.464,52.421 -52.421,52.421 -28.945,0 -52.409,-23.464 -52.409,-52.421 0,-28.945 23.464,-52.409 52.409,-52.409 z"
       id="path1130" />
    <path
       style="fill:#ffffff"
       d="m 402.413,405.364 c -9.6,10.744 -23.554,17.508 -39.105,17.508 -15.538,0 -29.499,-6.763 -39.093,-17.508 2.036,-8.173 9.727,-14.286 18.845,-14.286 h 1.421 l 8.299,-4.529 1.349,-5.276 c -1.975,-1.999 -4.017,-5.372 -5.878,-9.528 -0.151,0.024 -0.301,0.036 -0.464,0.036 -2.186,0 -4.366,-2.385 -4.854,-5.33 -0.379,-2.307 0.385,-4.27 1.783,-5.011 -1.855,-9.468 -3.084,-24 13.214,-27.59 9.775,-2.15 13.274,5.396 13.695,6.221 5.92,-3.318 9.678,1.662 10.642,4.294 1.747,4.764 1.18,13.623 0.289,17.538 0.988,0.94 1.464,2.62 1.144,4.547 -0.482,2.897 -2.59,5.252 -4.746,5.33 -1.741,3.83 -4.083,7.113 -6.456,9.492 l 1.349,5.282 h 0.114 l 8.07,4.529 h 1.536 c 9.112,0 16.809,6.131 18.845,14.292 v -0.011 z"
       id="path1132" />
    <g
       id="g1134">
</g>
    <g
       id="g1136">
</g>
    <g
       id="g1138">
</g>
    <g
       id="g1140">
</g>
    <g
       id="g1142">
</g>
    <g
       id="g1144">
</g>
    <g
       id="g1146">
</g>
    <g
       id="g1148">
</g>
    <g
       id="g1150">
</g>
    <g
       id="g1152">
</g>
    <g
       id="g1154">
</g>
    <g
       id="g1156">
</g>
    <g
       id="g1158">
</g>
    <g
       id="g1160">
</g>
    <g
       id="g1162">
</g>
  </g>
</svg>
