<?xml version="1.0" encoding="UTF-8" standalone="no"?>
<svg
   xmlns:dc="http://purl.org/dc/elements/1.1/"
   xmlns:cc="http://creativecommons.org/ns#"
   xmlns:rdf="http://www.w3.org/1999/02/22-rdf-syntax-ns#"
   xmlns:svg="http://www.w3.org/2000/svg"
   xmlns="http://www.w3.org/2000/svg"
   xmlns:sodipodi="http://sodipodi.sourceforge.net/DTD/sodipodi-0.dtd"
   xmlns:inkscape="http://www.inkscape.org/namespaces/inkscape"
   id="ac356da0-b129-4ca5-aecc-4700531dd101"
   data-name="Layer 1"
   width="1129"
   height="663"
   viewBox="0 0 1129 663"
   version="1.1"
   sodipodi:docname="code.svg"
   inkscape:version="1.0.1 (0767f8302a, 2020-10-17)">
  <metadata
     id="metadata83">
    <rdf:RDF>
      <cc:Work
         rdf:about="">
        <dc:format>image/svg+xml</dc:format>
        <dc:type
           rdf:resource="http://purl.org/dc/dcmitype/StillImage" />
        <dc:title>docu_tree</dc:title>
      </cc:Work>
    </rdf:RDF>
  </metadata>
  <defs
     id="defs81" />
  <sodipodi:namedview
     pagecolor="#ffffff"
     bordercolor="#666666"
     borderopacity="1"
     objecttolerance="10"
     gridtolerance="10"
     guidetolerance="10"
     inkscape:pageopacity="0"
     inkscape:pageshadow="2"
     inkscape:window-width="1866"
     inkscape:window-height="1016"
     id="namedview79"
     showgrid="false"
     inkscape:zoom="1.0044287"
     inkscape:cx="564.5"
     inkscape:cy="331.5"
     inkscape:window-x="54"
     inkscape:window-y="27"
     inkscape:window-maximized="1"
     inkscape:current-layer="ac356da0-b129-4ca5-aecc-4700531dd101"
     inkscape:document-rotation="0" />
  <title
     id="title2">docu_tree</title>
  <path
     style="fill:#ccd8e5;stroke-width:1.31488"
     d="M 890.15026,82.725475 V 498.67837 c 0,23.54817 -19.07758,42.64022 -42.62444,42.64022 H 281.47813 c -23.54818,0 -42.62577,-19.09205 -42.62577,-42.64022 V 82.725475 c 0,-23.548175 19.07759,-42.640224 42.62577,-42.640224 H 847.5245 c 23.54686,0 42.62576,19.092049 42.62576,42.640224 z"
     id="path1003" />
  <path
     style="fill:#dfeaf4;stroke-width:1.31488"
     d="M 890.15026,82.725475 V 498.67837 c 0,23.54817 -19.07758,42.64022 -42.62444,42.64022 H 468.96678 L 500.19779,465.1542 674.49689,40.085251 H 847.5245 c 23.54686,0 42.62576,19.092049 42.62576,42.640224 z"
     id="path1005" />
  <path
     style="fill:#008f44;stroke-width:1.31488;fill-opacity:1"
     d="M 890.15026,82.725475 V 465.1542 H 238.85368 V 82.725475 c 0,-23.548175 19.07758,-42.640224 42.62576,-42.640224 h 566.04638 c 23.54554,0 42.62444,19.092049 42.62444,42.640224 z"
     id="path1007" />
  <path
     style="fill:#00a74f;stroke-width:1.31488;fill-opacity:1"
     d="M 890.15026,82.725475 V 465.1542 H 500.19911 L 674.49689,40.085251 H 847.5245 c 23.54686,0 42.62576,19.092049 42.62576,42.640224 z"
     id="path1009" />
  <polygon
     style="fill:#ccd8e5"
     points="181.034,450.955 196.165,415.571 315.836,415.571 330.967,450.955 343.454,480.173 168.547,480.173 "
     id="polygon1011"
     transform="matrix(1.3148794,0,0,1.3148794,227.89153,-5.108469)" />
  <polygon
     style="fill:#bac6d1"
     points="330.967,450.955 181.034,450.955 196.165,415.571 315.836,415.571 "
     id="polygon1013"
     transform="matrix(1.3148794,0,0,1.3148794,227.89153,-5.108469)" />
  <path
     d="m 657.531,344.9716 c -2.80332,0 -5.60796,-1.069 -7.74727,-3.20962 -4.27861,-4.27862 -4.27861,-11.21593 0,-15.49323 l 63.00903,-63.0077 -63.00903,-63.00902 c -4.27861,-4.27862 -4.27861,-11.21593 0,-15.49323 4.28125,-4.27993 11.21724,-4.27862 15.49454,0 l 70.75498,70.75498 c 4.27862,4.27861 4.27862,11.21592 0,15.49322 l -70.75498,70.75498 c -2.13931,2.13931 -4.94394,3.20962 -7.74727,3.20962 z"
     id="path1015"
     style="stroke-width:1.31488;fill:#ffffff" />
  <path
     d="m 471.47294,344.9716 c -2.80332,0 -5.60796,-1.069 -7.74596,-3.20962 L 392.97201,271.007 c -4.27862,-4.27862 -4.27862,-11.21592 0,-15.49322 l 70.75497,-70.75498 c 4.27862,-4.27862 11.21593,-4.27862 15.49323,0 4.27862,4.27862 4.27862,11.21592 0,15.49323 l -63.00771,63.00902 63.00771,63.0077 c 4.27862,4.27862 4.27862,11.21592 0,15.49323 -2.13931,2.13931 -4.94395,3.20962 -7.74727,3.20962 z"
     id="path1017"
     style="stroke-width:1.31488;fill:#ffffff" />
  <path
     d="m 532.02576,376.76012 c -1.09529,0 -2.21031,-0.16567 -3.31218,-0.51412 -5.76837,-1.82768 -8.96353,-7.98394 -7.13585,-13.75364 l 64.96162,-205.07779 c 1.82637,-5.76706 7.98395,-8.96353 13.75101,-7.13585 5.76837,1.82768 8.96353,7.98395 7.13585,13.75364 l -64.9603,205.07779 c -1.47793,4.66651 -5.79205,7.64997 -10.44015,7.64997 z"
     id="path1019"
     style="stroke-width:1.31488;fill:#ffffff" />
  <path
     d="M 847.52319,27.455834 H 281.47813 c -29.54666,0 -53.5866,24.03994 -53.5866,53.586595 v 77.876361 c 0,6.05108 4.90582,10.95558 10.95558,10.95558 6.04976,0 10.95557,-4.90582 10.95557,-10.95558 V 81.042429 c 0,-17.466858 14.2099,-31.675444 31.67545,-31.675444 h 566.04506 c 17.46686,0 31.67544,14.209901 31.67544,31.675444 V 455.00859 h -68.64985 c -6.05108,0 -10.95558,4.90582 -10.95558,10.95558 0,6.04976 4.90582,10.95557 10.95558,10.95557 h 68.64985 v 20.08216 c 0,17.46686 -14.2099,31.67544 -31.67544,31.67544 H 643.17778 485.82353 281.47813 c -17.46686,0 -31.67545,-14.2099 -31.67545,-31.67544 v -20.08216 h 524.22664 c 6.05107,0 10.95557,-4.90581 10.95557,-10.95557 0,-6.04976 -4.90581,-10.95558 -10.95557,-10.95558 H 249.80268 V 195.43957 c 0,-6.05108 -4.90581,-10.95558 -10.95557,-10.95558 -6.04976,0 -10.95558,4.9045 -10.95558,10.95558 v 301.56496 c 0,29.54797 24.03994,53.58659 53.5866,53.58659 H 469.2245 l -26.94714,63.0419 h -52.63989 c -6.05107,0 -10.95557,4.90581 -10.95557,10.95557 0,6.04976 4.90581,10.95558 10.95557,10.95558 h 349.72505 c 6.05108,0 10.95558,-4.90582 10.95558,-10.95558 0,-6.04976 -4.90582,-10.95557 -10.95558,-10.95557 h -52.63988 l -26.94714,-63.0419 h 187.74637 c 29.54797,0 53.5866,-24.03862 53.5866,-53.58659 V 81.042429 c 10e-4,-29.546655 -24.03863,-53.586595 -53.58528,-53.586595 z M 662.89308,613.6317 H 466.10823 l 18.72125,-43.79863 h 159.34366 z"
     id="path1021"
     style="stroke-width:1.31488;stroke:#ffffff;fill:#ffffff" />
  <path
     d="m 561.83408,489.57677 c -4.62443,1.15578 -8.0418,5.32264 -8.27191,10.08513 -0.47861,9.9063 11.9733,15.29073 18.84223,8.11543 3.50152,-3.65799 4.0472,-9.43689 1.20048,-13.65502 -2.51668,-3.82104 -7.34097,-5.65266 -11.7708,-4.54554 z"
     id="path1023"
     style="stroke-width:1.31488" />
  <g
     id="g1025"
     transform="matrix(1.3148794,0,0,1.3148794,227.89153,-5.108469)" />
  <g
     id="g1027"
     transform="matrix(1.3148794,0,0,1.3148794,227.89153,-5.108469)" />
  <g
     id="g1029"
     transform="matrix(1.3148794,0,0,1.3148794,227.89153,-5.108469)" />
  <g
     id="g1031"
     transform="matrix(1.3148794,0,0,1.3148794,227.89153,-5.108469)" />
  <g
     id="g1033"
     transform="matrix(1.3148794,0,0,1.3148794,227.89153,-5.108469)" />
  <g
     id="g1035"
     transform="matrix(1.3148794,0,0,1.3148794,227.89153,-5.108469)" />
  <g
     id="g1037"
     transform="matrix(1.3148794,0,0,1.3148794,227.89153,-5.108469)" />
  <g
     id="g1039"
     transform="matrix(1.3148794,0,0,1.3148794,227.89153,-5.108469)" />
  <g
     id="g1041"
     transform="matrix(1.3148794,0,0,1.3148794,227.89153,-5.108469)" />
  <g
     id="g1043"
     transform="matrix(1.3148794,0,0,1.3148794,227.89153,-5.108469)" />
  <g
     id="g1045"
     transform="matrix(1.3148794,0,0,1.3148794,227.89153,-5.108469)" />
  <g
     id="g1047"
     transform="matrix(1.3148794,0,0,1.3148794,227.89153,-5.108469)" />
  <g
     id="g1049"
     transform="matrix(1.3148794,0,0,1.3148794,227.89153,-5.108469)" />
  <g
     id="g1051"
     transform="matrix(1.3148794,0,0,1.3148794,227.89153,-5.108469)" />
  <g
     id="g1053"
     transform="matrix(1.3148794,0,0,1.3148794,227.89153,-5.108469)" />
</svg>
