<?xml version="1.0" encoding="UTF-8" standalone="no"?>
<svg
   xmlns:dc="http://purl.org/dc/elements/1.1/"
   xmlns:cc="http://creativecommons.org/ns#"
   xmlns:rdf="http://www.w3.org/1999/02/22-rdf-syntax-ns#"
   xmlns:svg="http://www.w3.org/2000/svg"
   xmlns="http://www.w3.org/2000/svg"
   xmlns:sodipodi="http://sodipodi.sourceforge.net/DTD/sodipodi-0.dtd"
   xmlns:inkscape="http://www.inkscape.org/namespaces/inkscape"
   width="48"
   height="45"
   viewBox="0 0 12.699997 11.906251"
   version="1.1"
   id="svg18"
   inkscape:version="1.0.2 (1.0.2+r75+1)"
   sodipodi:docname="logo.svg">
  <defs
     id="defs12" />
  <sodipodi:namedview
     id="base"
     pagecolor="#ffffff"
     bordercolor="#666666"
     borderopacity="1.0"
     inkscape:pageopacity="0.0"
     inkscape:pageshadow="2"
     inkscape:zoom="14.094604"
     inkscape:cx="28.929314"
     inkscape:cy="42.795273"
     inkscape:document-units="mm"
     inkscape:current-layer="layer1"
     showgrid="false"
     inkscape:window-width="1280"
     inkscape:window-height="987"
     inkscape:window-x="1366"
     inkscape:window-y="0"
     inkscape:window-maximized="1"
     width="593mm"
     units="px"
     inkscape:document-rotation="0" />
  <metadata
     id="metadata15">
    <rdf:RDF>
      <cc:Work
         rdf:about="">
        <dc:format>image/svg+xml</dc:format>
        <dc:type
           rdf:resource="http://purl.org/dc/dcmitype/StillImage" />
        <dc:title />
      </cc:Work>
    </rdf:RDF>
  </metadata>
  <g
     inkscape:label="Camada 1"
     inkscape:groupmode="layer"
     id="layer1"
     transform="translate(0,-285.0938)">
    <path
       inkscape:connector-curvature="0"
       id="path4201-3"
       style="fill:#2c8246;fill-opacity:1;stroke-width:0.02338237"
       d="m 10.468016,286.5319 c -9.33e-4,-2.4e-4 -0.0026,0.009 -0.0016,0.0117 6.94e-4,0.002 0.0014,0.002 0.0018,0.004 v -0.0148 h -8.3e-5 c -6.5e-5,-3.3e-4 -1.66e-4,-5e-4 -2.3e-4,-5e-4 z m -7.0636867,2.44975 c -0.00593,0.006 -0.01341,0.0104 -0.020086,0.0156 -0.00117,3.3e-4 -0.00255,5e-4 -0.00351,0.002 -0.014613,0.0115 -0.027905,0.0248 -0.044827,0.0334 -0.019948,0.014 -0.040445,0.0271 -0.061653,0.0393 -0.00336,0.002 -0.00612,0.007 -0.010032,0.006 -7.129e-4,-5e-5 7.129e-4,-3.5e-4 7.129e-4,-5.2e-4 -0.00684,0.006 -0.014195,0.0113 -0.019744,0.0149 -0.00306,0.004 -0.00552,0.009 -0.00881,0.0128 -0.018037,0.0221 -0.025807,0.0278 -0.046412,0.0463 -0.014057,0.0182 -0.00351,0.005 -0.025731,0.0264 0.031315,0.005 0.054626,0.0257 0.084129,0.0557 0.061889,0.0632 0.3525406,0.3855 0.645812,0.71637 0.4329032,0.48841 0.5244696,0.6254 0.4868866,0.72824 -0.1019016,0.27883 -0.045067,0.53405 0.1586694,0.7126 0.292245,0.25611 0.6516928,0.20621 0.9201246,-0.12789 0.092827,-0.11555 0.1014695,-0.45562 0.015578,-0.61302 -0.098763,-0.18101 -0.420391,-0.31775 -0.6583552,-0.27988 -0.2010153,0.032 -0.2281756,0.01 -0.827088,-0.67205 -0.288007,-0.32791 -0.5242812,-0.61796 -0.5854019,-0.71568 z m -1.5391349,1.11326 c -0.00138,0.002 -0.0027,0.003 -0.00418,0.005 0.00138,-0.002 0.00341,-0.002 0.00479,-0.004 0,-2.4e-4 -7.129e-4,-5.1e-4 -7.129e-4,-0.002 z m -0.1578135,0.14685 c -0.00996,0.007 -0.019581,0.0134 -0.029842,0.0194 -0.011204,0.007 -0.02357,0.0111 -0.034937,0.0174 -0.0072,0.004 -0.013278,0.0109 -0.0214,0.0124 -0.00326,5.1e-4 0.0063,-0.01 0.00317,-0.009 -0.00428,0.002 -0.00539,0.007 -0.0081,0.0105 -0.0057,0.008 -0.010975,0.0171 -0.017049,0.0253 -0.028457,0.0381 -0.065187,0.0692 -0.1028407,0.0988 l 0.1690739,0.2077 c 0.1055533,0.12964 0.5314185,0.63775 0.9464555,1.12923 0.6606827,0.78234 0.7799766,0.89603 0.9577139,0.91289 0.1436423,0.0136 0.2252639,0.0636 0.2792794,0.17091 0.2458892,0.48863 0.927116,0.48758 1.1337667,-0.002 0.1295628,-0.3068 -0.038757,-0.67344 -0.3654212,-0.79593 -0.2060491,-0.0773 -0.5293082,0.0386 -0.7016424,0.25137 -0.2550352,0.31499 -0.3782432,0.22784 -1.3446703,-0.95082 C 2.0981,290.76323 1.7131077,290.2735 1.7073716,290.2415 Z m 3.2066277,0.36649 c 0.00838,-8e-5 0.01682,9e-5 0.0253,5.1e-4 0.062688,0.004 0.1282519,0.0242 0.192493,0.0654 0.191961,0.12337 0.2151699,0.39566 0.04641,0.54547 -0.1722589,0.15289 -0.4230301,0.12709 -0.5453709,-0.0561 -0.1766923,-0.26449 0.021628,-0.55226 0.2811643,-0.55543 z m 1.0604686,1.44345 c -9.487e-4,0.005 -0.00253,0.0125 -0.00253,0.0161 v 2.3e-4 c 0.00354,-0.003 0.00665,-0.006 0.010492,-0.008 -0.00253,-0.002 -0.00555,-0.005 -0.00796,-0.008 z m -1.5273171,0.18397 c 0.040379,0.002 0.083329,0.0217 0.1508764,0.0586 0.2025171,0.11097 0.2585809,0.41454 0.1044248,0.56575 -0.1543892,0.15142 -0.4421292,0.12562 -0.5595415,-0.0501 -0.1294115,-0.19371 -0.098023,-0.32505 0.1148285,-0.48077 0.079811,-0.0585 0.1263672,-0.0883 0.1721988,-0.093 0.00573,-5e-4 0.011433,-5e-4 0.017211,-5e-4 z m 3.5781259,0.48607 c -0.099485,-0.003 -0.2043398,0.026 -0.3220503,0.0858 -0.2219439,0.11256 -0.3081766,0.26164 -0.3081766,0.53278 0,0.20554 0.2250249,0.52867 0.3682022,0.52867 0.1247147,0 0.069007,0.3614 -0.074326,0.48204 -0.2437052,0.20515 -1.9695685,1.50345 -2.4572883,1.85331 0.018202,0.0347 0.035956,0.0695 0.058738,0.10134 0.01436,0.0201 0.063022,0.0652 0.1086209,0.10636 0.1841812,-0.1525 0.6917786,-0.5474 1.2810062,-0.99497 0.7266785,-0.55198 1.3379381,-1.04642 1.3584132,-1.09874 0.020475,-0.0523 0.037249,-0.16182 0.037249,-0.24337 0,-0.0978 0.047335,-0.16608 0.1391896,-0.20054 0.2417608,-0.0907 0.383959,-0.299 0.383959,-0.56266 0,-0.19869 -0.037435,-0.27679 -0.2007577,-0.41993 -0.125927,-0.11035 -0.2448856,-0.16646 -0.3727824,-0.1701 z m -0.022132,0.23693 c 0.1683812,0 0.3818637,0.20357 0.3818637,0.36414 0,0.0667 -0.055679,0.17601 -0.1237357,0.24276 -0.1544242,0.15147 -0.3819935,0.15606 -0.5163827,0.0104 -0.2143068,-0.23226 -0.053221,-0.6173 0.2582547,-0.6173 z m -2.0895537,0.36034 c -0.3094792,0.002 -0.5784554,0.2499 -0.5706303,0.63249 l 0.00555,0.27213 -0.5829652,0.45991 c -0.2013321,0.15882 -0.3801779,0.29218 -0.4981472,0.37428 0.011067,0.0137 0.022159,0.0279 0.032625,0.0394 0.037959,0.0371 0.073679,0.0761 0.1088784,0.11561 0.016014,0.008 0.032691,0.0152 0.047991,0.0233 0.3411186,-0.2769 1.0577011,-0.82092 1.0883421,-0.82092 0.027274,0 0.1185099,0.0307 0.2026828,0.0684 0.084165,0.0376 0.2270312,0.0502 0.3175556,0.0279 0.4783682,-0.11775 0.640082,-0.72849 0.2730281,-1.03143 -0.1351674,-0.11156 -0.2842679,-0.16177 -0.424933,-0.16099 z m 0.047735,0.24656 c 0.1498543,0 0.3818622,0.19778 0.3818622,0.32557 0,0.0455 -0.057704,0.15481 -0.1282305,0.24275 -0.1464423,0.1826 -0.2795857,0.20085 -0.4767373,0.0654 -0.2679556,-0.18408 -0.1096677,-0.63374 0.2231056,-0.63374 z"
       inkscape:export-xdpi="300"
       inkscape:export-ydpi="300" />
    <path
       inkscape:connector-curvature="0"
       style="fill:#2c8246;fill-opacity:1;stroke-width:0.02338237;stroke:#2c8246;stroke-opacity:1"
       d="m 11.237329,285.39231 -1.4221687,1.41586 c -0.7821647,0.77871 -1.4471739,1.46137 -1.4778383,1.51707 -0.038781,0.0704 -0.037373,0.11968 0.00459,0.16162 0.044037,0.044 -0.041464,0.1637 -0.317215,0.44395 -0.3304325,0.33583 -0.4052277,0.45204 -0.6004085,0.93254 -0.1226306,0.30192 -0.2229517,0.59022 -0.222954,0.64064 0,0.12915 0.04735,0.11967 0.6712844,-0.13463 0.4826233,-0.19669 0.6054752,-0.27515 0.9371208,-0.59834 0.2960349,-0.2885 0.4076509,-0.36508 0.4975149,-0.34152 0.0949,0.0249 0.3784047,-0.2281 1.5675314,-1.39883 0.798414,-0.78605 1.451626,-1.45709 1.451626,-1.49127 0,-0.0341 -0.245075,-0.30629 -0.544555,-0.60464 z m -6.94e-4,0.32565 0.410332,0.41029 0.410149,0.4102 -0.126866,0.11938 -0.126958,0.11929 -0.405082,-0.40788 -0.405126,-0.40772 0.121752,-0.12184 z m -0.383664,0.38153 0.409879,0.40713 0.409784,0.40695 -1.131351,1.13236 c -0.6222137,0.62274 -1.1444294,1.13226 -1.1604424,1.13226 -0.01602,0 -0.206084,-0.17833 -0.422526,-0.39621 l -0.3935403,-0.39614 1.144136,-1.14318 z m 0.124402,0.31945 c -0.04643,0.002 -0.112442,0.0522 -0.230397,0.16733 -0.118664,0.11586 -0.203032,0.23118 -0.187516,0.25628 0.05522,0.0894 0.166582,0.0431 0.349092,-0.14523 0.143894,-0.14845 0.170463,-0.20556 0.119605,-0.25642 -0.0127,-0.0127 -0.0261,-0.0201 -0.04174,-0.0217 -0.003,-2.2e-4 -0.0059,-3.2e-4 -0.009,-2.2e-4 z m -0.611777,0.63429 c -0.06806,0.003 -0.251398,0.16563 -0.7264967,0.63009 -0.7807509,0.76324 -0.8250877,0.8145 -0.7749972,0.89556 0.018383,0.0298 0.050748,0.054 0.071885,0.054 0.021145,0 0.3666765,-0.32899 0.7678732,-0.73102 0.5571767,-0.55833 0.7207607,-0.75366 0.6926087,-0.82701 -0.0056,-0.0145 -0.01516,-0.0224 -0.03087,-0.0217 z m -1.8253304,1.6336 0.2689418,0.27306 0.2689442,0.27315 -0.3252543,0.33288 c -0.1788933,0.18312 -0.4062375,0.3679 -0.5051853,0.41061 -0.4417158,0.19065 -0.7196494,0.28733 -0.7199216,0.25035 0,-0.0221 0.074357,-0.22575 0.1656385,-0.45267 0.131554,-0.32702 0.2365665,-0.4826 0.5063762,-0.75002 z m -1.1661653,2.99063 c 0.027878,0.0183 0.055951,0.0361 0.083939,0.0541 0.00117,-0.002 0.00226,-0.004 0.00334,-0.005 -0.02871,-0.0191 -0.057825,-0.0356 -0.087273,-0.0489 z m 1.3814324,0.17171 c -0.019464,0.008 -0.032054,0.0127 -0.018819,0.01 0.00677,-0.002 0.014868,-0.004 0.022163,-0.006 -0.00117,-0.002 -0.0021,-0.003 -0.00327,-0.004 z m -0.083802,0.0568 c -0.011416,0.002 -0.019946,0.004 -0.030919,0.006 0.00163,0.002 0.00334,0.004 0.00505,0.006 0.00982,-0.005 0.015871,-0.008 0.025849,-0.0117 z m -2.3933122,1.10472 v 0.0103 c 0.00227,-0.002 0.00429,-0.004 0.00658,-0.005 -0.00227,-0.002 -0.00435,-0.003 -0.00658,-0.005 z"
       id="path4201-5"
       inkscape:export-xdpi="300"
       inkscape:export-ydpi="300" />
    <path
       style="fill:none;fill-rule:evenodd;stroke:#2c8246;stroke-width:0.24855269;stroke-linecap:round;stroke-linejoin:round;stroke-miterlimit:4;stroke-dasharray:none;stroke-opacity:1"
       d="m 7.3611807,288.56819 -1.3691452,-1.57712 -5.09530227,4.00345 4.69669117,5.80587 5.0606386,-3.84746 -1.7677586,-2.42635"
       id="path4748"
       inkscape:connector-curvature="0"
       inkscape:export-xdpi="300"
       inkscape:export-ydpi="300" />
  </g>
</svg>
