<?xml version="1.0" encoding="UTF-8" standalone="no"?>
<svg
   xmlns:dc="http://purl.org/dc/elements/1.1/"
   xmlns:cc="http://creativecommons.org/ns#"
   xmlns:rdf="http://www.w3.org/1999/02/22-rdf-syntax-ns#"
   xmlns:svg="http://www.w3.org/2000/svg"
   xmlns="http://www.w3.org/2000/svg"
   xmlns:sodipodi="http://sodipodi.sourceforge.net/DTD/sodipodi-0.dtd"
   xmlns:inkscape="http://www.inkscape.org/namespaces/inkscape"
   width="1088"
   height="687.962"
   viewBox="0 0 1088 687.962"
   version="1.1"
   id="svg160"
   sodipodi:docname="openhardware.svg"
   inkscape:version="1.0.1 (0767f8302a, 2020-10-17)">
  <metadata
     id="metadata166">
    <rdf:RDF>
      <cc:Work
         rdf:about="">
        <dc:format>image/svg+xml</dc:format>
        <dc:type
           rdf:resource="http://purl.org/dc/dcmitype/StillImage" />
        <dc:title />
      </cc:Work>
    </rdf:RDF>
  </metadata>
  <defs
     id="defs164">
    <clipPath
       clipPathUnits="userSpaceOnUse"
       id="clipPath866">
      <rect
         style="opacity:0.409504;fill:#008f44;stroke:#ffcc00;stroke-width:7;stroke-linecap:round;stroke-linejoin:round;paint-order:stroke fill markers"
         id="rect868"
         width="369.93103"
         height="647.75922"
         x="172.31859"
         y="663.96014" />
    </clipPath>
  </defs>
  <sodipodi:namedview
     pagecolor="#ffffff"
     bordercolor="#666666"
     borderopacity="1"
     objecttolerance="10"
     gridtolerance="10"
     guidetolerance="10"
     inkscape:pageopacity="0"
     inkscape:pageshadow="2"
     inkscape:window-width="1866"
     inkscape:window-height="1016"
     id="namedview162"
     showgrid="false"
     inkscape:zoom="1.0422794"
     inkscape:cx="544"
     inkscape:cy="246.93279"
     inkscape:window-x="54"
     inkscape:window-y="27"
     inkscape:window-maximized="1"
     inkscape:current-layer="svg160"
     inkscape:document-rotation="0" />
  <path
     fill="#0099b0"
     d="m 837.86485,332.21125 -72.95478,-13.56669 c -1.77517,-0.33284 -3.71896,-2.00149 -4.31809,-3.71453 l -22.36262,-52.17204 c -0.83433,-1.61097 -0.67455,-4.14057 0.35504,-5.64058 l 42.50629,-61.95321 c 1.01627,-1.49113 0.81656,-3.75891 -0.46599,-5.04146 l -53.0907,-53.0907 c -1.28254,-1.28255 -3.54588,-1.49113 -5.03702,-0.46598 l -63.04049,43.26073 c -1.49114,1.02516 -4.04737,1.20711 -5.6672,0.40829 l -50.57441,-20.70284 c -1.71747,-0.56805 -3.39056,-2.48967 -3.72784,-4.26927 L 585.44106,79.80521 c -0.32841,-1.779601 -2.08139,-3.235235 -3.89206,-3.235235 h -75.0894 c -1.80623,0 -3.5592,1.455634 -3.88761,3.235235 l -14.04154,75.45776 c -0.33728,1.7796 -2.00594,3.70122 -3.72785,4.26927 l -50.57883,20.70284 c -1.62427,0.79882 -4.18051,0.61687 -5.66721,-0.40829 l -63.03605,-43.26073 c -1.49558,-1.02515 -3.76335,-0.81657 -5.04147,0.46598 l -53.09513,53.0907 c -1.27812,1.28255 -1.49115,3.55033 -0.46598,5.04146 l 42.51072,61.95321 c 1.02071,1.50001 1.18049,4.02961 0.35059,5.64058 l -22.36705,52.17204 c -0.59468,1.71304 -2.53405,3.38169 -4.31809,3.71453 l -72.95034,13.56669 c -1.78403,0.33728 -3.23523,2.08582 -3.23523,3.89648 l 0.005,75.08498 c 0,1.81067 1.45562,3.57251 3.23523,3.89648 l 71.16186,13.24272 c 1.77959,0.32396 3.68345,2.01481 4.22488,3.74116 l 22.21618,55.49604 c 0.79438,1.62871 0.60799,4.17608 -0.4216,5.66721 l -40.42047,58.90436 c -1.02072,1.49113 -0.81214,3.76334 0.46598,5.0459 l 53.09957,53.0907 c 1.27812,1.27368 3.54588,1.48226 5.04146,0.46598 l 57.86145,-39.71484 c 1.49114,-1.02072 3.98968,-1.10061 5.54739,-0.19084 l 25.51797,13.62439 c 1.6154,0.82545 3.50151,0.12869 4.19382,-1.54439 l 52.61544,-127.13277 c 0.69674,-1.67309 0,-3.80773 -1.5444,-4.753 l -6.38615,-3.90979 c -1.18049,-0.71895 -2.78257,-1.95712 -4.0385,-3.09323 -23.03718,-14.7516 -38.32134,-40.55804 -38.32134,-69.94588 0,-45.86133 37.1808,-83.0377 83.0377,-83.0377 45.85691,0 83.03328,37.17637 83.03328,83.0377 0,29.38784 -15.27972,55.19428 -38.32135,69.94588 -1.24705,1.13611 -2.85358,2.37428 -4.02962,3.09323 l -6.38615,3.90979 c -1.53551,0.94527 -2.23671,3.07991 -1.5444,4.753 l 52.61142,127.1372 c 0.69231,1.6731 2.57398,2.36541 4.19381,1.54439 l 25.51799,-13.62437 c 1.56213,-0.90977 4.05624,-0.83433 5.54737,0.19082 l 57.86589,39.71484 c 1.49114,1.01628 3.76336,0.80771 5.03703,-0.46598 l 53.09957,-53.0907 c 1.28255,-1.28255 1.49114,-3.55475 0.46599,-5.0459 l -40.42492,-58.90435 c -1.02071,-1.49114 -1.21154,-4.03849 -0.41715,-5.66721 l 22.21616,-55.49605 c 0.54587,-1.72634 2.43641,-3.41718 4.22045,-3.74115 l 71.16186,-13.24272 c 1.77516,-0.32396 3.23523,-2.08582 3.23523,-3.89648 l 0.009,-75.08498 c 0.005,-1.8151 -1.45119,-3.56364 -3.22636,-3.90092"
     id="path1070"
     style="stroke-width:4.43791;fill:#008f44;fill-opacity:1" />
  <path
     fill="#0099b0"
     d="m 835.83295,1012.3742 -72.95478,-13.56673 c -1.77517,-0.33284 -3.71896,-2.00149 -4.31809,-3.71454 l -22.36262,-52.17204 c -0.83433,-1.61097 -0.67455,-4.14057 0.35504,-5.64058 l 42.50629,-61.95321 c 1.01627,-1.49113 0.81656,-3.75891 -0.46599,-5.04146 l -53.0907,-53.0907 c -1.28254,-1.28255 -3.54588,-1.49113 -5.03702,-0.46598 l -63.04049,43.26073 c -1.49114,1.02516 -4.04737,1.20711 -5.6672,0.40829 l -50.57441,-20.70284 c -1.71747,-0.56805 -3.39056,-2.48967 -3.72784,-4.26927 l -14.04598,-75.45776 c -0.32841,-1.7796 -2.08139,-3.23523 -3.89206,-3.23523 h -75.0894 c -1.80623,0 -3.5592,1.45563 -3.88761,3.23523 l -14.04154,75.45776 c -0.33728,1.7796 -2.00594,3.70122 -3.72785,4.26927 l -50.57883,20.70285 c -1.62427,0.79882 -4.18051,0.61687 -5.66721,-0.40829 l -63.03605,-43.26074 c -1.49558,-1.02515 -3.76335,-0.81657 -5.04147,0.46598 l -53.09513,53.09071 c -1.27812,1.28255 -1.49115,3.55033 -0.46598,5.04146 l 42.51072,61.9532 c 1.02071,1.50001 1.18049,4.02961 0.35059,5.64058 l -22.36705,52.17204 c -0.59468,1.71304 -2.53405,3.38169 -4.31809,3.71454 l -72.95034,13.56673 c -1.78403,0.3372 -3.23523,2.0858 -3.23523,3.8964 l 0.005,75.085 c 0,1.8107 1.45562,3.5725 3.23523,3.8965 l 71.16186,13.2427 c 1.77959,0.324 3.68345,2.0148 4.22488,3.7412 l 22.21618,55.496 c 0.79438,1.6287 0.60799,4.1761 -0.4216,5.6672 l -40.42047,58.9044 c -1.02072,1.4911 -0.81214,3.7633 0.46598,5.0459 l 53.09957,53.0907 c 1.27812,1.2737 3.54588,1.4823 5.04146,0.466 l 57.86145,-39.7149 c 1.49114,-1.0207 3.98968,-1.1006 5.54739,-0.1908 l 25.51797,13.6244 c 1.6154,0.8254 3.50151,0.1287 4.19382,-1.5444 l 52.61544,-127.1328 c 0.69674,-1.6731 0,-3.8077 -1.5444,-4.753 l -6.38615,-3.9098 c -1.18049,-0.7189 -2.78257,-1.9571 -4.0385,-3.0932 -23.03718,-14.7516 -38.32134,-40.558 -38.32134,-69.9459 0,-45.8613 37.1808,-83.03769 83.0377,-83.03769 45.85691,0 83.03328,37.17639 83.03328,83.03769 0,29.3879 -15.27972,55.1943 -38.32135,69.9459 -1.24705,1.1361 -2.85358,2.3743 -4.02962,3.0932 l -6.38615,3.9098 c -1.53551,0.9453 -2.23671,3.0799 -1.5444,4.753 l 52.61142,127.1372 c 0.69231,1.6731 2.57398,2.3654 4.19381,1.5444 l 25.51799,-13.6243 c 1.56213,-0.9098 4.05624,-0.8344 5.54737,0.1908 l 57.86589,39.7148 c 1.49114,1.0163 3.76336,0.8077 5.03703,-0.466 l 53.09957,-53.0907 c 1.28255,-1.2825 1.49114,-3.5547 0.46599,-5.0459 l -40.42492,-58.9043 c -1.02071,-1.4912 -1.21154,-4.0385 -0.41715,-5.6672 l 22.21616,-55.4961 c 0.54587,-1.7263 2.43641,-3.4172 4.22045,-3.7411 l 71.16186,-13.2428 c 1.77516,-0.3239 3.23523,-2.0858 3.23523,-3.8964 l 0.009,-75.085 c 0.005,-1.8151 -1.45119,-3.5637 -3.22636,-3.9009"
     id="path1070-6"
     style="fill:#009f4b;fill-opacity:1;stroke-width:4.43791"
     clip-path="url(#clipPath866)"
     transform="translate(2.0319,-680.16291)" />
</svg>
